<svg id="flat" height="512" viewBox="0 0 512 512" width="512" xmlns="http://www.w3.org/2000/svg"><path d="m210.78425 107.47089 11.09357-49.92109a17.821 17.821 0 0 0 -4.79527-16.46725 17.821 17.821 0 0 0 -20.57112-3.33823l-4.51143 2.25568-10.34315-10.34315a19.31369 19.31369 0 0 0 -13.65685-5.65685 19.31369 19.31369 0 0 0 -13.65684 5.65685l-10.34316 10.34315-4.51141-2.2557a17.821 17.821 0 0 0 -20.57112 3.33823 17.821 17.821 0 0 0 -4.79527 16.46725l11.09357 49.92109a16 16 0 0 0 15.61898 12.52913h54.3305a16 16 0 0 0 15.619-12.52911z" fill="#c78640"/><path d="m208 144h-80l-.0001.00009a293.73709 293.73709 0 0 0 -103.9999 224.23491v23.765a96 96 0 0 0 96 96h96a96 96 0 0 0 96-96v-23.765a293.73709 293.73709 0 0 0 -103.9999-224.23491z" fill="#c78640"/><path d="m200 304h-16v-32h56v-32h-56v-32h-32v32h-16a47.99987 47.99987 0 0 0 -48 48 47.99987 47.99987 0 0 0 48 48h16v32h-56v32h56v32h32v-32h16a47.99987 47.99987 0 0 0 48-48 47.99987 47.99987 0 0 0 -48-48zm-48 0h-16a16.00016 16.00016 0 0 1 -16-16 16.00016 16.00016 0 0 1 16-16h16zm64 48a16.00016 16.00016 0 0 1 -16 16h-16v-32h16a16.00016 16.00016 0 0 1 16 16z" fill="#b1712c"/><rect fill="#ffc431" height="24" rx="12" width="80" x="128" y="120"/><circle cx="360" cy="120" fill="#ffc431" r="64"/><path d="m360 280v64h-24l40 48 40-48h-24v-64z" fill="#f5714f"/><path d="m432 320v-64h-24l40-48 40 48h-24v64z" fill="#548aff"/><path d="m326.059 111.999h67.882v16.001h-67.882z" fill="#ffa100" transform="matrix(.707 -.707 .707 .707 20.589 289.706)"/><circle cx="344" cy="104" fill="#ffa100" r="8"/><circle cx="376" cy="136" fill="#ffa100" r="8"/><g fill="#ffc431"><path d="m352 16h16v16h-16z"/><path d="m284.117 44.118h16.001v16h-16.001z" transform="matrix(.707 -.707 .707 .707 48.707 221.823)"/><path d="m256 112h16v16h-16z"/><path d="m284.118 179.882h16v16.001h-16z" transform="matrix(.707 -.707 .707 .707 -47.294 261.588)"/><path d="m352 208h16v16h-16z"/><path d="m419.882 179.882h16.001v16h-16.001z" transform="matrix(.707 -.707 .707 .707 -7.529 357.588)"/><path d="m448 112h16v16h-16z"/><path d="m419.882 44.117h16v16.001h-16z" transform="matrix(.707 -.707 .707 .707 88.471 317.823)"/></g></svg>